HIERARCHY
ROOT hip
{
  OFFSET 0 0 0
  CHANNELS 6 Xposition Yposition Zposition Zrotation Yrotation Xrotation
  JOINT abdomen
  {
    OFFSET 0 20.6881 -0.73152
    CHANNELS 3 Zrotation Xrotation Yrotation
    JOINT chest
    {
      OFFSET 0 11.7043 -0.48768
      CHANNELS 3 Zrotation Xrotation Yrotation
      JOINT neck
      {
        OFFSET 0 22.1894 -2.19456
        CHANNELS 3 Zrotation Xrotation Yrotation
        JOINT head
        {
          OFFSET -0.24384 7.07133 1.2192
          CHANNELS 3 Zrotation Xrotation Yrotation
          JOINT leftEye
          {
            OFFSET 4.14528 8.04674 8.04672
            CHANNELS 3 Zrotation Xrotation Yrotation
            End Site
            {
              OFFSET 1 0 0
            }
          }
          JOINT rightEye
          {
            OFFSET -3.6576 8.04674 8.04672
            CHANNELS 3 Zrotation Xrotation Yrotation
            End Site
            {
              OFFSET 1 0 0
            }
          }
        }
      }
      JOINT rCollar
      {
        OFFSET -2.68224 19.2634 -4.8768
        CHANNELS 3 Zrotation Xrotation Yrotation
        JOINT rShldr
        {
          OFFSET -8.77824 -1.95073 1.46304
          CHANNELS 3 Zrotation Xrotation Yrotation
          JOINT rForeArm
          {
            OFFSET -28.1742 -1.7115 0.48768
            CHANNELS 3 Zrotation Xrotation Yrotation
            JOINT rHand
            {
              OFFSET -22.5879 0.773209 7.07136
              CHANNELS 3 Zrotation Xrotation Yrotation
              JOINT rThumb1
              {
                OFFSET -1.2192 -0.487915 3.41376
                CHANNELS 3 Zrotation Xrotation Yrotation
                JOINT rThumb2
                {
                  OFFSET -3.37035 -0.52449 3.41376
                  CHANNELS 3 Zrotation Xrotation Yrotation
                  End Site
                  {
                    OFFSET -1.78271 -1.18214 1.43049
                  }
                }
              }
              JOINT rIndex1
              {
                OFFSET -7.75947 0.938293 5.60832
                CHANNELS 3 Zrotation Xrotation Yrotation
                JOINT rIndex2
                {
                  OFFSET -2.54057 -0.884171 1.56538
                  CHANNELS 3 Zrotation Xrotation Yrotation
                  End Site
                  {
                    OFFSET -1.62519 -0.234802 1.16502
                  }
                }
              }
              JOINT rMid1
              {
                OFFSET -8.24714 1.18213 3.41376
                CHANNELS 3 Zrotation Xrotation Yrotation
                JOINT rMid2
                {
                  OFFSET -3.10165 -0.590103 1.0647
                  CHANNELS 3 Zrotation Xrotation Yrotation
                  End Site
                  {
                    OFFSET -2.48547 -0.328903 0.83742
                  }
                }
              }
              JOINT rRing1
              {
                OFFSET -8.82822 0.546677 1.51678
                CHANNELS 3 Zrotation Xrotation Yrotation
                JOINT rRing2
                {
                  OFFSET -2.60934 -0.819778 -0.0198488
                  CHANNELS 3 Zrotation Xrotation Yrotation
                  End Site
                  {
                    OFFSET -2.33842 -0.294052 0.168128
                  }
                }
              }
              JOINT rPinky1
              {
                OFFSET -8.27202 -0.0477905 -0.4584
                CHANNELS 3 Zrotation Xrotation Yrotation
                JOINT rPinky2
                {
                  OFFSET -1.82734 -0.647385 -0.700984
                  CHANNELS 3 Zrotation Xrotation Yrotation
                  End Site
                  {
                    OFFSET -1.69225 -0.51767 -0.607171
                  }
                }
              }
            }
          }
        }
      }
      JOINT lCollar
      {
        OFFSET 2.68224 19.2634 -4.8768
        CHANNELS 3 Zrotation Xrotation Yrotation
        JOINT lShldr
        {
          OFFSET 8.77824 -1.95073 1.46304
          CHANNELS 3 Zrotation Xrotation Yrotation
          JOINT lForeArm
          {
            OFFSET 28.1742 -1.7115 0.48768
            CHANNELS 3 Zrotation Xrotation Yrotation
            JOINT lHand
            {
              OFFSET 22.5879 0.773209 7.07136
              CHANNELS 3 Zrotation Xrotation Yrotation
              JOINT lThumb1
              {
                OFFSET 1.2192 -0.487915 3.41376
                CHANNELS 3 Zrotation Xrotation Yrotation
                JOINT lThumb2
                {
                  OFFSET 3.37035 -0.52449 3.41376
                  CHANNELS 3 Zrotation Xrotation Yrotation
                  End Site
                  {
                    OFFSET 1.78271 -1.18214 1.43049
                  }
                }
              }
              JOINT lIndex1
              {
                OFFSET 7.75947 0.938293 5.60832
                CHANNELS 3 Zrotation Xrotation Yrotation
                JOINT lIndex2
                {
                  OFFSET 2.54057 -0.884171 1.56538
                  CHANNELS 3 Zrotation Xrotation Yrotation
                  End Site
                  {
                    OFFSET 1.62519 -0.234802 1.16502
                  }
                }
              }
              JOINT lMid1
              {
                OFFSET 8.24714 1.18213 3.41376
                CHANNELS 3 Zrotation Xrotation Yrotation
                JOINT lMid2
                {
                  OFFSET 3.10165 -0.590103 1.0647
                  CHANNELS 3 Zrotation Xrotation Yrotation
                  End Site
                  {
                    OFFSET 2.48547 -0.328903 0.83742
                  }
                }
              }
              JOINT lRing1
              {
                OFFSET 8.82822 0.546677 1.51678
                CHANNELS 3 Zrotation Xrotation Yrotation
                JOINT lRing2
                {
                  OFFSET 2.60934 -0.819778 -0.0198488
                  CHANNELS 3 Zrotation Xrotation Yrotation
                  End Site
                  {
                    OFFSET 2.33842 -0.294052 0.168128
                  }
                }
              }
              JOINT lPinky1
              {
                OFFSET 8.27202 -0.0477905 -0.4584
                CHANNELS 3 Zrotation Xrotation Yrotation
                JOINT lPinky2
                {
                  OFFSET 1.82734 -0.647385 -0.700984
                  CHANNELS 3 Zrotation Xrotation Yrotation
                  End Site
                  {
                    OFFSET 1.69225 -0.51767 -0.607171
                  }
                }
              }
            }
          }
        }
      }
    }
  }
  JOINT rButtock
  {
    OFFSET -8.77824 4.35084 1.2192
    CHANNELS 3 Zrotation Xrotation Yrotation
    JOINT rThigh
    {
      OFFSET 0 -1.70687 -2.19456
      CHANNELS 3 Zrotation Xrotation Yrotation
      JOINT rShin
      {
        OFFSET 0 -36.8199 0.73152
        CHANNELS 3 Zrotation Xrotation Yrotation
        JOINT rFoot
        {
          OFFSET 0.73152 -45.1104 -5.12064
          CHANNELS 3 Zrotation Xrotation Yrotation
          End Site
          {
            OFFSET -1.1221 -3.69964 12.103
          }
        }
      }
    }
  }
  JOINT lButtock
  {
    OFFSET 8.77824 4.35084 1.2192
    CHANNELS 3 Zrotation Xrotation Yrotation
    JOINT lThigh
    {
      OFFSET 0 -1.70687 -2.19456
      CHANNELS 3 Zrotation Xrotation Yrotation
      JOINT lShin
      {
        OFFSET 0 -36.8199 0.73152
        CHANNELS 3 Zrotation Xrotation Yrotation
        JOINT lFoot
        {
          OFFSET -0.73152 -45.1104 -5.12064
          CHANNELS 3 Zrotation Xrotation Yrotation
          End Site
          {
            OFFSET 1.1221 -3.69964 12.103
          }
        }
      }
    }
  }
}
MOTION
Frames: 6
Frame Time:	0.06666666
-0.198801 85.3204 67.1521 -1.5347 0.5897 -0.3369 6.11048 6.65808 -2.51149 3.7827 -2.60896 -0.347454 -9.51147 -2.69561 -3.45042 9.50394 -2.42962 -3.55689 -0.0 0.0 0.0 -0.0 0.0 0.0 9.13305e-15 -1.90775e-14 4.70623e-14 80.2241 6.80699 -2.88433 -11.9154 -5.3895 21.4463 -0.170618 11.6908 1.66645 -8.17977e-10 3.81285e-10 -1.03947e-10 -1.41456e-09 6.59335e-10 -1.71292e-10 -8.17975e-10 3.81288e-10 -1.03956e-10 7.73091 5.47488 0.417314 -8.17979e-10 3.81286e-10 -1.03947e-10 2.90554 0.965183 0.102902 -8.17965e-10 3.81287e-10 -1.03953e-10 10.2786 0.731801 0.0259123 -8.17983e-10 3.81289e-10 -1.0395e-10 2.22167 -0.733487 -0.20892 8.95702e-15 -1.90895e-14 4.67144e-14 -80.8462 18.2092 -2.5193 14.4741 -7.34354 -26.5131 0.0733951 7.7063 -1.08969 -9.44184e-10 -1.19419e-09 -7.96805e-10 -1.63882e-09 -2.0678e-09 -1.37178e-09 -9.44198e-10 -1.19419e-09 -7.96793e-10 -7.73091 5.47488 -0.417314 -9.44186e-10 -1.19419e-09 -7.96812e-10 -2.90554 0.965183 -0.102902 -9.44192e-10 -1.19419e-09 -7.96814e-10 -10.2786 0.731801 -0.0259123 -9.44177e-10 -1.19419e-09 -7.96821e-10 -2.22167 -0.733487 0.20892 -2.03217e-16 0.0 -3.88251e-19 8.92348 -16.9582 5.16347 -0.0452357 23.7822 -0.0941508 -0.880972 -1.81998 -5.41226 2.03217e-16 0.0 3.88251e-19 3.08942 -19.2799 -1.54622 1.26338 62.1304 -1.5287 0.52846 9.39363 -3.23613
-0.33686 85.2315 68.9066 -1.6965 0.6565 -0.3883 6.38656 6.84877 -2.26799 3.59884 -2.4694 -0.286636 -9.57926 -2.5121 -3.50319 9.46602 -2.88651 -3.63074 -0.0 0.0 0.0 -0.0 0.0 0.0 4.10522e-14 -3.68225e-14 3.51973e-14 79.9239 8.21165 -2.14155 -12.2639 -5.63731 22.1184 -0.144642 10.804 1.5367 -5.98984e-10 6.2582e-11 4.43863e-10 -1.03041e-09 1.04796e-10 7.73248e-10 -5.9898e-10 6.25853e-11 4.43848e-10 7.73091 5.47488 0.417314 -5.98985e-10 6.25808e-11 4.43863e-10 2.90554 0.965183 0.102902 -5.98976e-10 6.25804e-11 4.43859e-10 10.2786 0.731801 0.0259123 -5.98989e-10 6.25814e-11 4.43864e-10 2.22167 -0.733487 -0.20892 4.09616e-14 -3.68273e-14 3.49861e-14 -81.042 18.2929 -2.24033 14.4231 -7.30104 -26.4094 0.0676928 7.40653 -1.0468 -8.5724e-10 -1.65053e-09 -6.55863e-10 -1.48764e-09 -2.8576e-09 -1.12675e-09 -8.57248e-10 -1.65053e-09 -6.55848e-10 -7.73091 5.47488 -0.417314 -8.57239e-10 -1.65053e-09 -6.55864e-10 -2.90554 0.965183 -0.102902 -8.57248e-10 -1.65053e-09 -6.55865e-10 -10.2786 0.731801 -0.0259123 -8.57236e-10 -1.65053e-09 -6.5587e-10 -2.22167 -0.733487 0.20892 -2.03217e-16 0.0 -3.88251e-19 9.28866 -15.7854 4.97743 -0.0372034 24.2804 -0.00970526 -1.06755 -3.15144 -5.82788 2.03217e-16 0.0 3.88251e-19 3.62709 -21.7162 -1.14258 1.33379 63.0838 -1.61865 0.408041 7.28625 -2.20765
-0.493627 85.058 70.6893 -2.0244 0.7408 -0.6794 6.6533 7.06222 -1.95079 3.37632 -2.41055 -0.207212 -9.63052 -2.20683 -3.52282 9.40075 -3.44989 -3.65556 -0.0 0.0 0.0 -0.0 0.0 0.0 6.42506e-14 -5.32784e-14 1.43622e-14 79.5929 9.61554 -1.44809 -12.6262 -5.89756 22.8284 -0.120166 9.83675 1.39635 -2.48523e-10 -3.3784e-10 8.68609e-10 -4.20338e-10 -5.90346e-10 1.50362e-09 -2.4852e-10 -3.37837e-10 8.6859e-10 7.73091 5.47488 0.417314 -2.48524e-10 -3.37843e-10 8.68609e-10 2.90554 0.965183 0.102902 -2.48521e-10 -3.37845e-10 8.68609e-10 10.2786 0.731801 0.0259123 -2.48528e-10 -3.37844e-10 8.68616e-10 2.22167 -0.733487 -0.20892 6.42679e-14 -5.327e-14 1.42628e-14 -81.2653 18.3434 -1.88356 14.369 -7.25613 -26.2995 0.0579199 6.85134 -0.967555 -6.43495e-10 -1.80573e-09 -4.28545e-10 -1.1166e-09 -3.12617e-09 -7.33542e-10 -6.43495e-10 -1.80572e-09 -4.28529e-10 -7.73091 5.47488 -0.417314 -6.43491e-10 -1.80573e-09 -4.28542e-10 -2.90554 0.965183 -0.102902 -6.435e-10 -1.80572e-09 -4.2854e-10 -10.2786 0.731801 -0.0259123 -6.43494e-10 -1.80572e-09 -4.28545e-10 -2.22167 -0.733487 0.20892 -2.03217e-16 0.0 -3.88251e-19 9.61898 -14.6651 4.71538 -0.0327688 24.857 0.0846985 -1.27632 -4.5784 -6.14273 2.03217e-16 0.0 3.88251e-19 4.14545 -23.9505 -0.694078 1.3589 63.4565 -1.66888 0.362233 4.9602 -1.2827
-0.655427 84.7859 72.3981 -2.1884 0.5888 -0.73 6.87098 7.21219 -1.46299 3.11769 -2.75687 -0.0740956 -9.64121 -1.78829 -3.48348 9.4794 -3.52502 -3.63145 -0.0 0.0 0.0 -0.0 0.0 0.0 1.33905e-14 -7.9373e-14 1.12841e-14 79.3548 10.5321 -1.00775 -12.8239 -6.04277 23.2173 -0.104997 9.19441 1.30354 5.75103e-11 -6.10812e-10 8.92883e-10 1.08281e-10 -1.06198e-09 1.54212e-09 5.7511e-11 -6.10807e-10 8.92871e-10 7.73091 5.47488 0.417314 5.75076e-11 -6.10813e-10 8.92885e-10 2.90554 0.965183 0.102902 5.75118e-11 -6.10813e-10 8.92884e-10 10.2786 0.731801 0.0259123 5.75051e-11 -6.10813e-10 8.9289e-10 2.22167 -0.733487 -0.20892 1.34649e-14 -7.93562e-14 1.10729e-14 -81.5854 18.4255 -0.981177 14.3025 -7.20115 -26.1645 0.0498443 6.36546 -0.898331 -4.08319e-10 -1.43514e-09 -3.9828e-10 -7.1062e-10 -2.4858e-09 -6.83396e-10 -4.0832e-10 -1.43514e-09 -3.98266e-10 -7.73091 5.47488 -0.417314 -4.08314e-10 -1.43514e-09 -3.98279e-10 -2.90554 0.965183 -0.102902 -4.08316e-10 -1.43514e-09 -3.98276e-10 -10.2786 0.731801 -0.0259123 -4.08318e-10 -1.43514e-09 -3.98283e-10 -2.22167 -0.733487 0.20892 -2.03217e-16 0.0 -3.88251e-19 10.0004 -13.6524 4.61722 -0.0311393 25.4128 0.183178 -1.49699 -6.00641 -6.42412 2.03217e-16 0.0 3.88251e-19 4.73438 -26.1695 -0.155007 1.33103 63.2106 -1.67049 0.37108 3.08078 -0.757296
-0.779322 84.6191 74.1505 -2.5642 0.3368 -0.7721 7.02202 7.34923 -0.881226 2.84706 -3.09718 0.0814444 -9.63955 -1.48919 -3.45307 9.55899 -3.45066 -3.62225 -0.0 0.0 0.0 -0.0 0.0 0.0 -1.79875e-14 -8.58839e-14 1.13804e-14 79.0639 11.3167 -0.458422 -12.9781 -6.15864 23.5197 -0.0928518 8.65904 1.22639 1.90936e-10 -6.02454e-10 5.58445e-10 3.35618e-10 -1.04537e-09 9.62236e-10 1.90935e-10 -6.02447e-10 5.58439e-10 7.73091 5.47488 0.417314 1.90932e-10 -6.02453e-10 5.58448e-10 2.90554 0.965183 0.102902 1.90939e-10 -6.02451e-10 5.58446e-10 10.2786 0.731801 0.0259123 1.9093e-10 -6.0245e-10 5.58451e-10 2.22167 -0.733487 -0.20892 -1.78944e-14 -8.58657e-14 1.10325e-14 -81.8968 18.4676 -0.114806 14.2411 -7.15064 -26.0405 0.0445357 6.012 -0.848077 -2.48982e-10 -8.8226e-10 -3.08402e-10 -4.3454e-10 -1.5289e-09 -5.29978e-10 -2.48985e-10 -8.82261e-10 -3.08393e-10 -7.73091 5.47488 -0.417314 -2.48977e-10 -8.82259e-10 -3.08406e-10 -2.90554 0.965183 -0.102902 -2.48974e-10 -8.82254e-10 -3.08402e-10 -10.2786 0.731801 -0.0259123 -2.48979e-10 -8.82258e-10 -3.08412e-10 -2.22167 -0.733487 0.20892 -2.03217e-16 0.0 -3.88251e-19 10.3519 -12.6618 4.61978 -0.0320138 25.8953 0.281256 -1.72824 -7.36255 -6.72546 2.03217e-16 0.0 3.88251e-19 5.30481 -28.2037 0.44782 1.25173 62.3054 -1.62037 0.417957 1.44682 -0.181968
-0.860959 84.3711 75.772 -2.6178 -0.0191 -0.7241 7.02578 7.52201 -0.219883 2.5949 -2.99331 0.24417 -9.6392 -1.7109 -3.51916 9.4825 -3.37229 -3.72533 -0.0 0.0 0.0 -0.0 0.0 0.0 9.63927e-14 -2.56434e-14 7.45443e-15 78.4995 12.1561 0.711163 -13.1289 -6.2718 23.8188 -0.0838594 8.21445 1.16257 -2.09277e-10 2.00526e-10 -4.87521e-10 -3.63586e-10 3.47523e-10 -8.42295e-10 -2.09276e-10 2.00529e-10 -4.87537e-10 7.73091 5.47488 0.417314 -2.0928e-10 2.00526e-10 -4.87521e-10 2.90554 0.965183 0.102902 -2.09273e-10 2.00528e-10 -4.87522e-10 10.2786 0.731801 0.0259123 -2.09282e-10 2.00529e-10 -4.87516e-10 2.22167 -0.733487 -0.20892 9.64348e-14 -2.5643e-14 7.10966e-15 -82.0526 18.4027 0.0572257 14.2207 -7.13368 -25.9995 0.0463597 6.12697 -0.864431 -3.7666e-10 -3.57325e-10 1.74853e-10 -6.48512e-10 -6.15877e-10 3.07113e-10 -3.76666e-10 -3.57326e-10 1.74855e-10 -7.73091 5.47488 -0.417314 -3.76656e-10 -3.57322e-10 1.74848e-10 -2.90554 0.965183 -0.102902 -3.76664e-10 -3.5732e-10 1.74851e-10 -10.2786 0.731801 -0.0259123 -3.76657e-10 -3.57322e-10 1.74843e-10 -2.22167 -0.733487 0.20892 -2.03217e-16 0.0 -3.88251e-19 10.5835 -11.6609 4.76653 -0.0341648 26.2699 0.373826 -1.97958 -8.53027 -7.16407 2.03217e-16 0.0 3.88251e-19 5.74205 -29.9511 1.14324 1.12982 60.6909 -1.5213 0.550848 0.155766 0.936919
